<?xml version="1.0" encoding="UTF-8"?>
<!-- Trench icon "agent" (PHASE18 P18.13 loose ends): drawn for the Dock in the
     study's idiom (three-quarter view, a heavy outline, lit from the top
     left, a soft cast shadow; the "neon" scheme), and imported with
     abyss/tools/svg2dl. Aqua's: a speech bubble, confined. -->
<svg xmlns="http://www.w3.org/2000/svg" viewBox="0 0 44 44">
  <defs>
    <linearGradient id="gMetal" x1="0" y1="0" x2="0" y2="1"><stop offset="0" style="stop-color:#4a4178"/><stop offset="1" style="stop-color:#211a40"/></linearGradient>
    <linearGradient id="gPaper" x1="0" y1="0" x2="1" y2="1"><stop offset="0" style="stop-color:#f2f0ff"/><stop offset="1" style="stop-color:#b9b2dc"/></linearGradient>
  </defs>
  <ellipse cx="23" cy="39.5" rx="16" ry="2.8" fill="#000" opacity=".38"/>
  <path d="M7 9.5L34 5.6c1.8-.3 3 .8 3 2.6v14.6c0 1.8-1.2 3.2-3 3.4L20 28.2l-7.5 6 1.4-5.1-6.4.9c-1.8.3-3-.8-3-2.6V12.1c0-1.4 1.1-2.4 2.5-2.6z" fill="url(#gMetal)" stroke="#170c2c" stroke-width="1.5" stroke-linejoin="round"/>
  <circle cx="13.5" cy="18.6" r="2.1" style="fill:#39ff14" stroke="#170c2c" stroke-width=".8"/><circle cx="20.5" cy="17.6" r="2.1" style="fill:#39ff14" stroke="#170c2c" stroke-width=".8"/><circle cx="27.5" cy="16.6" r="2.1" style="fill:#39ff14" stroke="#170c2c" stroke-width=".8"/>
  <path d="M8.2 10.6l25.6-3.7" stroke="#fff" stroke-opacity=".4" stroke-linecap="round"/>
  <path d="M30.3 28.6v-2.4a2.7 2.7 0 0 1 5.4 0v2.4" fill="none" stroke="#170c2c" stroke-width="1.7"/>
  <rect x="28.3" y="28.2" width="9.4" height="7.6" rx="1.2" style="fill:#ff2bd6" stroke="#170c2c" stroke-width="1.3"/>
  <circle cx="33" cy="31.6" r="1.2" fill="#170c2c"/>
</svg>
