<?xml version="1.0" encoding="UTF-8"?>
<!-- Trench pane icon "sound" (BACKLOG §5): Sound: a speaker, and its waves. Drawn for System
     Preferences in the study's idiom (three-quarter view, a heavy outline,
     lit from the top left, a soft cast shadow; the "neon" scheme), and
     imported into icons/prefs.dl with abyss/tools/svg2dl. -->
<svg xmlns="http://www.w3.org/2000/svg" viewBox="0 0 32 32">
  <defs>
    <linearGradient id="gMetal" x1="0" y1="0" x2="0" y2="1"><stop offset="0" style="stop-color:#4a4178"/><stop offset="1" style="stop-color:#211a40"/></linearGradient>
    <linearGradient id="gPaper" x1="0" y1="0" x2="1" y2="1"><stop offset="0" style="stop-color:#f2f0ff"/><stop offset="1" style="stop-color:#b9b2dc"/></linearGradient>
    <linearGradient id="gAmber" x1="0" y1="0" x2="0" y2="1"><stop offset="0" stop-color="#ffe08a"/><stop offset=".45" stop-color="#ffb000"/><stop offset="1" stop-color="#c26f00"/></linearGradient>
    <linearGradient id="gAmberB" x1="0" y1="0" x2="0" y2="1"><stop offset="0" stop-color="#e3a32a"/><stop offset="1" stop-color="#8a4f00"/></linearGradient>
    <linearGradient id="gGlass" x1="0" y1="0" x2="0" y2="1"><stop offset="0" stop-color="#7ff3ff"/><stop offset="1" stop-color="#1a5fa0"/></linearGradient>
  </defs>
  <ellipse cx="17" cy="28.6" rx="11.5" ry="2.1" fill="#000" opacity=".38"/>
  <path d="M4 12.5l5-.6 6.5-5.4v19l-6.5-3.6-5 .3z" fill="url(#gMetal)" stroke="#170c2c" stroke-width="1.2" stroke-linejoin="round"/><path d="M9 11.9v9.9" stroke="#170c2c" stroke-width="1"/>
  <path d="M19 12c1.6 2.3 1.6 6 0 8.4M22.3 9.4c2.8 3.9 2.8 9.6 0 13.6M25.6 7c3.9 5.3 3.9 12.9 0 18.3" fill="none" style="stroke:#00e5ff" stroke-width="1.7" stroke-linecap="round"/>
</svg>
